HIERARCHY
ROOT hip
{
  OFFSET 0 0 0
  CHANNELS 6 Xposition Yposition Zposition Zrotation Yrotation Xrotation
  JOINT abdomen
  {
    OFFSET 0 20.6881 -0.73152
    CHANNELS 3 Zrotation Xrotation Yrotation
    JOINT chest
    {
      OFFSET 0 11.7043 -0.48768
      CHANNELS 3 Zrotation Xrotation Yrotation
      JOINT neck
      {
        OFFSET 0 22.1894 -2.19456
        CHANNELS 3 Zrotation Xrotation Yrotation
        JOINT head
        {
          OFFSET -0.24384 7.07133 1.2192
          CHANNELS 3 Zrotation Xrotation Yrotation
          JOINT leftEye
          {
            OFFSET 4.14528 8.04674 8.04672
            CHANNELS 3 Zrotation Xrotation Yrotation
            End Site
            {
              OFFSET 1 0 0
            }
          }
          JOINT rightEye
          {
            OFFSET -3.6576 8.04674 8.04672
            CHANNELS 3 Zrotation Xrotation Yrotation
            End Site
            {
              OFFSET 1 0 0
            }
          }
        }
      }
      JOINT rCollar
      {
        OFFSET -2.68224 19.2634 -4.8768
        CHANNELS 3 Zrotation Xrotation Yrotation
        JOINT rShldr
        {
          OFFSET -8.77824 -1.95073 1.46304
          CHANNELS 3 Zrotation Xrotation Yrotation
          JOINT rForeArm
          {
            OFFSET -28.1742 -1.7115 0.48768
            CHANNELS 3 Zrotation Xrotation Yrotation
            JOINT rHand
            {
              OFFSET -22.5879 0.773209 7.07136
              CHANNELS 3 Zrotation Xrotation Yrotation
              JOINT rThumb1
              {
                OFFSET -1.2192 -0.487915 3.41376
                CHANNELS 3 Zrotation Xrotation Yrotation
                JOINT rThumb2
                {
                  OFFSET -3.37035 -0.52449 3.41376
                  CHANNELS 3 Zrotation Xrotation Yrotation
                  End Site
                  {
                    OFFSET -1.78271 -1.18214 1.43049
                  }
                }
              }
              JOINT rIndex1
              {
                OFFSET -7.75947 0.938293 5.60832
                CHANNELS 3 Zrotation Xrotation Yrotation
                JOINT rIndex2
                {
                  OFFSET -2.54057 -0.884171 1.56538
                  CHANNELS 3 Zrotation Xrotation Yrotation
                  End Site
                  {
                    OFFSET -1.62519 -0.234802 1.16502
                  }
                }
              }
              JOINT rMid1
              {
                OFFSET -8.24714 1.18213 3.41376
                CHANNELS 3 Zrotation Xrotation Yrotation
                JOINT rMid2
                {
                  OFFSET -3.10165 -0.590103 1.0647
                  CHANNELS 3 Zrotation Xrotation Yrotation
                  End Site
                  {
                    OFFSET -2.48547 -0.328903 0.83742
                  }
                }
              }
              JOINT rRing1
              {
                OFFSET -8.82822 0.546677 1.51678
                CHANNELS 3 Zrotation Xrotation Yrotation
                JOINT rRing2
                {
                  OFFSET -2.60934 -0.819778 -0.0198488
                  CHANNELS 3 Zrotation Xrotation Yrotation
                  End Site
                  {
                    OFFSET -2.33842 -0.294052 0.168128
                  }
                }
              }
              JOINT rPinky1
              {
                OFFSET -8.27202 -0.0477905 -0.4584
                CHANNELS 3 Zrotation Xrotation Yrotation
                JOINT rPinky2
                {
                  OFFSET -1.82734 -0.647385 -0.700984
                  CHANNELS 3 Zrotation Xrotation Yrotation
                  End Site
                  {
                    OFFSET -1.69225 -0.51767 -0.607171
                  }
                }
              }
            }
          }
        }
      }
      JOINT lCollar
      {
        OFFSET 2.68224 19.2634 -4.8768
        CHANNELS 3 Zrotation Xrotation Yrotation
        JOINT lShldr
        {
          OFFSET 8.77824 -1.95073 1.46304
          CHANNELS 3 Zrotation Xrotation Yrotation
          JOINT lForeArm
          {
            OFFSET 28.1742 -1.7115 0.48768
            CHANNELS 3 Zrotation Xrotation Yrotation
            JOINT lHand
            {
              OFFSET 22.5879 0.773209 7.07136
              CHANNELS 3 Zrotation Xrotation Yrotation
              JOINT lThumb1
              {
                OFFSET 1.2192 -0.487915 3.41376
                CHANNELS 3 Zrotation Xrotation Yrotation
                JOINT lThumb2
                {
                  OFFSET 3.37035 -0.52449 3.41376
                  CHANNELS 3 Zrotation Xrotation Yrotation
                  End Site
                  {
                    OFFSET 1.78271 -1.18214 1.43049
                  }
                }
              }
              JOINT lIndex1
              {
                OFFSET 7.75947 0.938293 5.60832
                CHANNELS 3 Zrotation Xrotation Yrotation
                JOINT lIndex2
                {
                  OFFSET 2.54057 -0.884171 1.56538
                  CHANNELS 3 Zrotation Xrotation Yrotation
                  End Site
                  {
                    OFFSET 1.62519 -0.234802 1.16502
                  }
                }
              }
              JOINT lMid1
              {
                OFFSET 8.24714 1.18213 3.41376
                CHANNELS 3 Zrotation Xrotation Yrotation
                JOINT lMid2
                {
                  OFFSET 3.10165 -0.590103 1.0647
                  CHANNELS 3 Zrotation Xrotation Yrotation
                  End Site
                  {
                    OFFSET 2.48547 -0.328903 0.83742
                  }
                }
              }
              JOINT lRing1
              {
                OFFSET 8.82822 0.546677 1.51678
                CHANNELS 3 Zrotation Xrotation Yrotation
                JOINT lRing2
                {
                  OFFSET 2.60934 -0.819778 -0.0198488
                  CHANNELS 3 Zrotation Xrotation Yrotation
                  End Site
                  {
                    OFFSET 2.33842 -0.294052 0.168128
                  }
                }
              }
              JOINT lPinky1
              {
                OFFSET 8.27202 -0.0477905 -0.4584
                CHANNELS 3 Zrotation Xrotation Yrotation
                JOINT lPinky2
                {
                  OFFSET 1.82734 -0.647385 -0.700984
                  CHANNELS 3 Zrotation Xrotation Yrotation
                  End Site
                  {
                    OFFSET 1.69225 -0.51767 -0.607171
                  }
                }
              }
            }
          }
        }
      }
    }
  }
  JOINT rButtock
  {
    OFFSET -8.77824 4.35084 1.2192
    CHANNELS 3 Zrotation Xrotation Yrotation
    JOINT rThigh
    {
      OFFSET 0 -1.70687 -2.19456
      CHANNELS 3 Zrotation Xrotation Yrotation
      JOINT rShin
      {
        OFFSET 0 -36.8199 0.73152
        CHANNELS 3 Zrotation Xrotation Yrotation
        JOINT rFoot
        {
          OFFSET 0.73152 -45.1104 -5.12064
          CHANNELS 3 Zrotation Xrotation Yrotation
          End Site
          {
            OFFSET -1.1221 -3.69964 12.103
          }
        }
      }
    }
  }
  JOINT lButtock
  {
    OFFSET 8.77824 4.35084 1.2192
    CHANNELS 3 Zrotation Xrotation Yrotation
    JOINT lThigh
    {
      OFFSET 0 -1.70687 -2.19456
      CHANNELS 3 Zrotation Xrotation Yrotation
      JOINT lShin
      {
        OFFSET 0 -36.8199 0.73152
        CHANNELS 3 Zrotation Xrotation Yrotation
        JOINT lFoot
        {
          OFFSET -0.73152 -45.1104 -5.12064
          CHANNELS 3 Zrotation Xrotation Yrotation
          End Site
          {
            OFFSET 1.1221 -3.69964 12.103
          }
        }
      }
    }
  }
}
MOTION
Frames:	4
Frame Time:	0.00833333
49.6365 85.5269 257.681 0.0 0.0 0.0 2.341 -0.00222409 0.0637212 0.646595 0.00594998 0.111938 4.14666e-15 7.95139e-16 -4.47266e-16 1.28775e-14 9.54166e-15 -1.14456e-15 -0.0 0.0 0.0 -0.0 0.0 0.0 2.4834e-15 -2.9313e-17 -9.93923e-17 4.77057e-14 -6.89534e-16 -2.78299e-15 7.8346e-13 -2.49475e-13 -6.67917e-14 8.94463e-12 1.32217e-13 -8.36486e-13 2.109e-11 -2.54791e-13 -1.96558e-12 3.64034e-11 -4.35736e-13 -3.4191e-12 2.10938e-11 -2.53252e-13 -1.97512e-12 7.73091 5.47488 0.417314 2.10892e-11 -2.5524e-13 -1.96558e-12 2.90554 0.965183 0.102902 2.10997e-11 -2.54842e-13 -1.97194e-12 10.2786 0.731801 0.0259123 2.10873e-11 -2.52457e-13 -1.96558e-12 2.22167 -0.733487 -0.20892 2.38696e-15 -2.38775e-17 -2.98177e-16 4.41603e-14 -6.83322e-16 -5.1684e-15 7.83261e-13 2.13296e-13 -9.54166e-14 8.93276e-12 -3.28343e-13 -8.30125e-13 2.10699e-11 -2.51795e-13 -1.99421e-12 3.63863e-11 -4.32555e-13 -3.4342e-12 2.10676e-11 -2.51661e-13 -1.97831e-12 -7.73091 5.47488 -0.417314 2.10687e-11 -2.51661e-13 -1.98785e-12 -2.90554 0.965183 -0.102902 2.10598e-11 -2.51761e-13 -1.98864e-12 -10.2786 0.731801 -0.0259123 2.10795e-11 -2.50469e-13 -1.99739e-12 -2.22167 -0.733487 0.20892 -2.03217e-16 0.0 -3.88251e-19 2.2156 -8.02972 -0.231367 0.006071 8.97366 0.152065 -0.477806 -0.951446 0.0348764 2.03217e-16 0.0 3.88251e-19 1.35217 -1.92788 -0.00535982 0.00846574 -2.07867 0.0694526 0.423745 3.99898 -0.127273
50.6837 84.5488 245.752 -177.601 -0.2948 178.525 2.87482 1.7523 0.203984 0.618985 -1.73941 0.192905 -1.22135 2.42314 0.0272666 1.17672 3.3486 -1.65504 -0.0 0.0 0.0 -0.0 0.0 0.0 2.5567e-14 -1.56481e-14 -5.17617e-15 21.5932 13.1429 -1.36074 -4.53783 -2.12929 7.01297 0.0451906 4.72043 0.655318 1.12483e-11 1.34542e-10 -1.35727e-10 1.80102e-11 2.33255e-10 -2.34547e-10 1.12535e-11 1.34543e-10 -1.35734e-10 7.73091 5.47488 0.417314 1.12471e-11 1.34541e-10 -1.35726e-10 2.90554 0.965183 0.102902 1.12565e-11 1.34541e-10 -1.35731e-10 10.2786 0.731801 0.0259123 1.12443e-11 1.34543e-10 -1.35726e-10 2.22167 -0.733487 -0.20892 2.5468e-14 -1.56432e-14 -5.4328e-15 -22.2895 9.44939 1.9209 5.9904 -3.20087 -8.77774 -0.029041 3.78166 -0.527304 -1.33414e-10 -2.56459e-10 -1.06363e-10 -2.31854e-10 -4.42558e-10 -1.81713e-10 -1.33422e-10 -2.5646e-10 -1.06348e-10 -7.73091 5.47488 -0.417314 -1.33416e-10 -2.56462e-10 -1.06356e-10 -2.90554 0.965183 -0.102902 -1.33424e-10 -2.56462e-10 -1.06359e-10 -10.2786 0.731801 -0.0259123 -1.33406e-10 -2.5646e-10 -1.06366e-10 -2.22167 -0.733487 0.20892 -2.03217e-16 0.0 -3.88251e-19 3.61994 -9.00379 3.96236 0.0286963 14.4404 0.254608 -1.53981 -5.20726 -6.93916 2.03217e-16 0.0 3.88251e-19 0.570042 -4.19899 -5.73086 -0.0273743 5.47274 -0.121886 1.24266 -1.92669 5.51774
50.6133 84.5637 245.721 -177.958 -0.1951 178.355 3.45289 3.59589 0.34937 0.595783 -3.58012 0.278332 -2.51457 4.9843 0.0535148 2.62911 6.8646 -3.42307 -0.0 0.0 0.0 -0.0 0.0 0.0 5.17812e-14 -3.29375e-14 -1.07716e-14 45.1713 27.0003 -3.06031 -8.7733 -4.27434 14.4584 -0.025932 9.69248 1.36079 -2.25712e-12 2.92787e-10 -2.88721e-10 -6.92817e-12 5.07546e-10 -4.98861e-10 -2.25042e-12 2.92788e-10 -2.88724e-10 7.73091 5.47488 0.417314 -2.2587e-12 2.92786e-10 -2.88718e-10 2.90554 0.965183 0.102902 -2.25047e-12 2.92785e-10 -2.88722e-10 10.2786 0.731801 0.0259123 -2.26251e-12 2.92787e-10 -2.88719e-10 2.22167 -0.733487 -0.20892 5.16771e-14 -3.29331e-14 -1.10916e-14 -46.5831 19.3992 4.13514 11.2698 -6.33484 -18.1445 0.0165745 7.77672 -1.0922 -3.06877e-10 -5.46616e-10 -2.25486e-10 -5.33063e-10 -9.43287e-10 -3.85233e-10 -3.0689e-10 -5.46617e-10 -2.25472e-10 -7.73091 5.47488 -0.417314 -3.06879e-10 -5.46621e-10 -2.25478e-10 -2.90554 0.965183 -0.102902 -3.06887e-10 -5.46622e-10 -2.25483e-10 -10.2786 0.731801 -0.0259123 -3.06871e-10 -5.46619e-10 -2.25489e-10 -2.22167 -0.733487 0.20892 -2.03217e-16 0.0 -3.88251e-19 5.28064 -9.97254 8.42275 0.0300557 20.2086 0.370853 -3.78699 -9.47165 -14.4552 2.03217e-16 0.0 3.88251e-19 -0.729167 -6.51916 -11.8286 -0.00933282 13.4712 -0.332579 3.38114 -8.05651 11.5889
50.5413 84.5844 245.684 -178.283 -0.1746 178.171 3.91659 5.2612 0.486273 0.578633 -5.23007 0.356055 -3.67102 7.26941 0.0823888 4.11734 10.012 -5.03348 -0.0 0.0 0.0 -0.0 0.0 0.0 7.17341e-14 -4.68857e-14 -1.53297e-14 67.115 39.326 -5.14175 -12.0816 -6.00589 21.1459 -0.196927 14.1537 2.02065 -8.43513e-12 4.04136e-10 -4.0325e-10 -1.87764e-11 7.00638e-10 -6.96802e-10 -8.42715e-12 4.04136e-10 -4.03251e-10 7.73091 5.47488 0.417314 -8.43703e-12 4.04135e-10 -4.03247e-10 2.90554 0.965183 0.102902 -8.42989e-12 4.04133e-10 -4.03249e-10 10.2786 0.731801 0.0259123 -8.44176e-12 4.04135e-10 -4.03247e-10 2.22167 -0.733487 -0.20892 7.163e-14 -4.68818e-14 -1.5702e-14 -68.983 28.2118 6.45384 15.116 -8.70277 -26.622 0.125208 11.3411 -1.60991 -4.42382e-10 -7.68875e-10 -3.15101e-10 -7.68336e-10 -1.32681e-09 -5.38271e-10 -4.424e-10 -7.68878e-10 -3.15087e-10 -7.73091 5.47488 -0.417314 -4.42385e-10 -7.68883e-10 -3.15093e-10 -2.90554 0.965183 -0.102902 -4.42393e-10 -7.68883e-10 -3.151e-10 -10.2786 0.731801 -0.0259123 -4.42378e-10 -7.6888e-10 -3.15104e-10 -2.22167 -0.733487 0.20892 -2.03217e-16 0.0 -3.88251e-19 6.8561 -10.7637 12.4205 0.00864451 25.3733 0.486186 -6.76168 -12.9157 -21.3669 2.03217e-16 0.0 3.88251e-19 -2.34437 -8.41054 -17.3277 0.0598553 20.5748 -0.537065 6.40174 -13.205 17.2681
